<svg width="57" height="48" viewBox="0 0 57 48" fill="none" xmlns="http://www.w3.org/2000/svg">
<path d="M44.5867 18.9919C48.0067 17.4959 50.4133 13.9837 50.4133 9.88618C50.4133 4.42276 46.1067 0 40.7867 0C35.4667 0 31.16 4.4878 31.16 9.88618C31.16 13.9837 33.5667 17.4309 36.9867 18.9919C32.5533 20.0976 28.69 23.1545 26.5367 27.3821C24.7 25.8211 22.4833 24.6504 20.0767 24.065C23.4967 22.5691 25.9033 19.0569 25.9033 14.9593C25.9033 9.49593 21.5967 5.07317 16.2767 5.07317C10.9567 5.07317 6.65 9.49593 6.65 14.9593C6.65 19.0569 9.05667 22.5041 12.4767 24.065C5.32 25.8211 0 32.3902 0 40.1951C0 42.0163 0.95 44.5528 5.57333 46.3089C8.42333 47.3496 12.16 48 16.2133 48C23.37 48 30.59 46.1138 32.11 41.8862C34.6433 42.5366 37.7467 42.9268 40.85 42.9268C46.1067 42.9268 51.4267 41.9512 54.4033 39.7398C56.5567 38.1789 57 36.4228 57 35.187C57 27.3171 51.68 20.813 44.5867 18.9919Z" fill="#D4D4D4"/>
</svg>
