<svg width="245" height="74" viewBox="0 0 245 74" fill="none" xmlns="http://www.w3.org/2000/svg">
<g filter="url(#filter0_d_5556_45944)">
<path d="M23.6918 27.6394C23.7679 26.1883 25.6563 25.6823 26.4478 26.901L32.3252 35.9514C32.6791 36.4964 33.3437 36.7515 33.9714 36.5833L44.3951 33.7903C45.7986 33.4142 46.8635 35.0539 45.949 36.1831L39.1578 44.5696C38.7488 45.0746 38.7116 45.7855 39.0655 46.3305L44.9429 55.381C45.7343 56.5996 44.5039 58.119 43.1473 57.5983L33.0727 53.731C32.466 53.4981 31.7784 53.6824 31.3694 54.1874L24.5782 62.5739C23.6638 63.7031 21.8385 63.0025 21.9146 61.5514L22.4793 50.7748C22.5133 50.1258 22.1256 49.5288 21.5189 49.2959L11.4443 45.4286C10.0878 44.9079 10.1901 42.9555 11.5937 42.5794L22.0173 39.7864C22.645 39.6182 23.093 39.0649 23.127 38.416L23.6918 27.6394Z" fill="white"/>
<path d="M73.3903 16.0265C73.6551 14.5978 75.5935 14.3426 76.2191 15.6541L80.8649 25.3942C81.1447 25.9808 81.7703 26.3205 82.4146 26.2356L93.1136 24.8271C94.5543 24.6374 95.396 26.4021 94.3419 27.4023L86.5142 34.8306C86.0428 35.2779 85.913 35.9779 86.1928 36.5644L90.8386 46.3045C91.4642 47.6161 90.046 48.9619 88.769 48.2685L79.2854 43.1193C78.7143 42.8093 78.0085 42.9022 77.5371 43.3495L69.7093 50.7778C68.6553 51.778 66.9371 50.8451 67.2019 49.4164L69.1685 38.8057C69.2869 38.1668 68.9804 37.5242 68.4093 37.2141L58.9257 32.0649C57.6487 31.3716 58.005 29.4492 59.4456 29.2595L70.1447 27.851C70.789 27.7662 71.3053 27.2761 71.4238 26.6372L73.3903 16.0265Z" fill="white"/>
<path d="M121.184 11.3906C121.633 10.0086 123.588 10.0086 124.037 11.3906L127.372 21.6538C127.573 22.2718 128.149 22.6903 128.798 22.6903H139.59C141.043 22.6903 141.647 24.5497 140.471 25.4038L131.741 31.7468C131.215 32.1287 130.995 32.8058 131.196 33.4238L134.531 43.687C134.98 45.069 133.398 46.2182 132.223 45.3641L123.492 39.0211C122.966 38.6391 122.255 38.6391 121.729 39.0211L112.998 45.3641C111.823 46.2182 110.241 45.069 110.69 43.687L114.025 33.4238C114.226 32.8058 114.006 32.1287 113.48 31.7468L104.75 25.4038C103.574 24.5497 104.178 22.6903 105.631 22.6903H116.423C117.072 22.6903 117.648 22.2718 117.849 21.6538L121.184 11.3906Z" fill="white"/>
<path d="M169.001 16.0584C169.627 14.7469 171.565 15.0021 171.83 16.4308L173.796 27.0415C173.915 27.6805 174.431 28.1705 175.075 28.2553L185.774 29.6639C187.215 29.8535 187.571 31.7759 186.294 32.4693L176.811 37.6185C176.24 37.9285 175.933 38.5711 176.052 39.21L178.018 49.8207C178.283 51.2495 176.565 52.1823 175.511 51.1821L167.683 43.7538C167.212 43.3065 166.506 43.2136 165.935 43.5237L156.451 48.6729C155.174 49.3662 153.756 48.0204 154.381 46.7089L159.027 36.9687C159.307 36.3822 159.177 35.6822 158.706 35.2349L150.878 27.8066C149.824 26.8064 150.666 25.0417 152.106 25.2314L162.806 26.6399C163.45 26.7248 164.075 26.3851 164.355 25.7985L169.001 16.0584Z" fill="white"/>
<path d="M218.367 27.3048C219.159 26.0863 221.047 26.5922 221.123 28.0433L221.689 38.8201C221.723 39.469 222.171 40.0222 222.798 40.1904L233.222 42.9838C234.626 43.36 234.728 45.3123 233.371 45.8331L223.297 49.7008C222.69 49.9337 222.302 50.5307 222.336 51.1796L222.901 61.9564C222.977 63.4075 221.152 64.1081 220.237 62.9789L213.445 54.5925C213.036 54.0875 212.349 53.9033 211.742 54.1361L201.667 58.0031C200.311 58.5238 199.08 57.0045 199.872 55.7858L205.749 46.735C206.103 46.19 206.066 45.4792 205.657 44.9742L198.866 36.5873C197.951 35.458 199.016 33.8184 200.419 34.1944L210.843 36.9871C211.471 37.1553 212.136 36.9002 212.49 36.3552L218.367 27.3048Z" fill="white"/>
</g>
<defs>
<filter id="filter0_d_5556_45944" x="0.481445" y="0.353516" width="243.853" height="73.1855" filterUnits="userSpaceOnUse" color-interpolation-filters="sRGB">
<feFlood flood-opacity="0" result="BackgroundImageFix"/>
<feColorMatrix in="SourceAlpha" type="matrix" values="0 0 0 0 0 0 0 0 0 0 0 0 0 0 0 0 0 0 127 0" result="hardAlpha"/>
<feOffset/>
<feGaussianBlur stdDeviation="5"/>
<feColorMatrix type="matrix" values="0 0 0 0 1 0 0 0 0 1 0 0 0 0 1 0 0 0 0.25 0"/>
<feBlend mode="normal" in2="BackgroundImageFix" result="effect1_dropShadow_5556_45944"/>
<feBlend mode="normal" in="SourceGraphic" in2="effect1_dropShadow_5556_45944" result="shape"/>
</filter>
</defs>
</svg>
